<svg xmlns="http://www.w3.org/2000/svg" xmlns:xlink="http://www.w3.org/1999/xlink" version="1.1" enable-background="new 0 0 1000 1000" xml:space="preserve" width="1000" height="1000" style=""><rect id="backgroundrect" width="100%" height="100%" x="0" y="0" fill="none" stroke="none"/>
<metadata> Svg Vector Icons : http://www.onlinewebfonts.com/icon </metadata>

<g class="currentLayer" style=""><title>Layer 1</title><g id="svg_1" class="selected" fill-opacity="0.253" fill="#ffbc5e" stroke-opacity="1" stroke="#ffdb6e" stroke-width="20"><path d="M234.1,561.3h45.1V338.5h-45.1V561.3z M452.7,338.5c-32.8,0-58.5,10-77.2,29.9c-18.7,20-28,47.1-28,81.5c0,34.1,9.3,61.2,28,81.2c18.7,20.1,44.4,30.1,77.2,30.1c32.7,0,58.4-9.9,77.2-29.7c18.8-19.8,28.2-47,28.2-81.6c0-34.6-9.4-61.8-28.2-81.6C511.1,348.5,485.4,338.5,452.7,338.5z M505.6,451.7c0,73.7-66.7,62.5-50.7,62.5c-56.9,0-50.9-68.9-50.9-62.4c0-75.1,68.3-62.5,50.9-62.5C511.4,389.3,505.6,458.6,505.6,451.7z M584,382.6h87.2v178.6h47.9V382.6h70.5v-44.1H584.2L584,382.6z M147.9,700.5h704.2c27.7,0,48.8-21.4,48.8-49.4V215.3c0-28-21.1-49.4-48.8-49.4H147.9c-27.7,0-48.8,21.4-48.8,49.4v435.8C99.1,666.3,109,700.5,147.9,700.5z M188.2,255h623.6v356.4H188.2V255z M966.8,745.2H34.2c-13.4,0-24.2,10-24.2,23.7v19.7l40.3,38.2c4,4.8,9.7,7.2,17.1,7.2h863.2c7.4,0,13.1-2.4,17.1-7.2l42.3-38.2v-19.7C990,755.2,980.3,745.2,966.8,745.2z M585.1,789.3H414.9c-2.5,0-3.8-4.7-4-10.7c0.2-6.1,1.5-10.8,4-10.8h170.2c2.5,0,3.8,4.7,4,10.8C588.9,784.6,587.6,789.3,585.1,789.3z" id="svg_2" fill="#ffbc5e" stroke="#ffdb6e" stroke-width="25"/></g></g></svg>